<svg xmlns="http://www.w3.org/2000/svg" viewBox="0 0 72 64">
 <!-- cancello -->
 <rect x="10" y="22" width="52" height="28" rx="2" ry="2" fill="none" stroke="#2b2b2b" stroke-width="2"/>
 <path d="M36 22V50 M10 36H62" stroke="#2b2b2b" stroke-width="2" fill="none"/>
 <path d="M10 24 C22 12, 50 12, 62 24" fill="none" stroke="#2b2b2b" stroke-width="2"/>

 <!-- iniziali SR dentro il pannello -->
 <g transform="translate(0,0)" fill="#2b2b2b">
   <path d="M25 38c0-2.4 2-3.5 4.4-3.5h3.6v1.9h-3.4c-1.3 0-2.3.6-2.3 1.6s.8 1.6 2.3 1.6h1c2.6 0 4.8 1.1 4.8 3.7 0 2.6-2.3 3.9-5.1 3.9-1.9 0-3.9-.5-5.3-1.3l.7-1.7c1.2.7 2.8 1.2 4.3 1.2 1.8 0 3.1-.7 3.1-2s-1.2-1.9-3.1-1.9h-1.1c-3 0-5-1.2-5-3.5z"/>
   <path d="M44.2 34.5h3.6c3.2 0 5.2 1.7 5.2 4.2 0 1.8-1 3.2-2.7 3.8l3 3.9h-2.6l-2.7-3.6h-1.1v3.6h-2.6V34.5zm3.6 6.4c1.7 0 2.7-.9 2.7-2.3s-1-2.2-2.7-2.2h-1.1v4.5h1.1z"/>
 </g>
</svg>
